REM DIRINDEX 1\6,1\2\7,1\2\8,1\2\9,1\3\10,1\3\11,1\4\12,1\4\13,1\4\14,1\5\15,1\5\16,1\5\17
REM DIRNAME folder01,folder02,folder03,folder04,folder05,folder06,folder07,folder08,folder09,folder10,folder11,folder12,folder13,folder14,folder15,folder16,folder17
TITLE ""
FILE "3Q_t_0844-0859.mp3" MP3
  TRACK 01 AUDIO
    TITLE "10:cjc041_3299"
    INDEX 01 00:00:00
  TRACK 02 AUDIO
    TITLE "0:"
    INDEX 01 00:01:09
  TRACK 03 AUDIO
    TITLE "11:cjc041_3300"
    INDEX 01 00:01:68
  TRACK 04 AUDIO
    TITLE "0:"
    INDEX 01 00:03:19
  TRACK 05 AUDIO
    TITLE "10:cjc041_3301"
    INDEX 01 00:03:72
  TRACK 06 AUDIO
    TITLE "0:"
    INDEX 01 00:05:30
  TRACK 07 AUDIO
    TITLE "11:cjc041_3302"
    INDEX 01 00:06:10
  TRACK 08 AUDIO
    TITLE "0:"
    INDEX 01 00:07:39
  TRACK 09 AUDIO
    TITLE "10:cjc041_3303"
    INDEX 01 00:08:21
  TRACK 10 AUDIO
    TITLE "0:"
    INDEX 01 00:09:36
  TRACK 11 AUDIO
    TITLE "11:cjc041_3304"
    INDEX 01 00:10:12
  TRACK 12 AUDIO
    TITLE "0:"
    INDEX 01 00:11:37
  TRACK 13 AUDIO
    TITLE "10:cjc041_3305"
    INDEX 01 00:12:16
  TRACK 14 AUDIO
    TITLE "0:"
    INDEX 01 00:13:33
  TRACK 15 AUDIO
    TITLE "11:cjc041_3306"
    INDEX 01 00:14:13
  TRACK 16 AUDIO
    TITLE "0:"
    INDEX 01 00:15:19
  TRACK 17 AUDIO
    TITLE "10:cjc041_3307"
    INDEX 01 00:15:74
  TRACK 18 AUDIO
    TITLE "0:"
    INDEX 01 00:17:18
  TRACK 19 AUDIO
    TITLE "11:cjc041_3308"
    INDEX 01 00:17:72
  TRACK 20 AUDIO
    TITLE "0:"
    INDEX 01 00:19:13
  TRACK 21 AUDIO
    TITLE "10:cjc041_3309"
    INDEX 01 00:19:60
  TRACK 22 AUDIO
    TITLE "0:"
    INDEX 01 00:21:06
  TRACK 23 AUDIO
    TITLE "11:cjc041_3310"
    INDEX 01 00:21:58
  TRACK 24 AUDIO
    TITLE "0:"
    INDEX 01 00:23:10
  TRACK 25 AUDIO
    TITLE "10:cjc041_3311"
    INDEX 01 00:23:61
  TRACK 26 AUDIO
    TITLE "0:"
    INDEX 01 00:25:09
  TRACK 27 AUDIO
    TITLE "11:cjc041_3312"
    INDEX 01 00:25:62
  TRACK 28 AUDIO
    TITLE "0:"
    INDEX 01 00:28:33
  TRACK 29 AUDIO
    TITLE "10:cjc041_3313"
    INDEX 01 00:29:05
  TRACK 30 AUDIO
    TITLE "0:"
    INDEX 01 00:30:28
  TRACK 31 AUDIO
    TITLE "11:cjc041_3314"
    INDEX 01 00:31:04
  TRACK 32 AUDIO
    TITLE "0:"
    INDEX 01 00:34:45
  TRACK 33 AUDIO
    TITLE "10:cjc041_3315"
    INDEX 01 00:35:29
  TRACK 34 AUDIO
    TITLE "0:"
    INDEX 01 00:36:46
  TRACK 35 AUDIO
    TITLE "11:cjc041_3316"
    INDEX 01 00:37:30
  TRACK 36 AUDIO
    TITLE "0:"
    INDEX 01 00:38:45
  TRACK 37 AUDIO
    TITLE "10:cjc041_3317"
    INDEX 01 00:39:25
  TRACK 38 AUDIO
    TITLE "0:"
    INDEX 01 00:40:48
  TRACK 39 AUDIO
    TITLE "11:cjc041_3318"
    INDEX 01 00:41:26
  TRACK 40 AUDIO
    TITLE "0:"
    INDEX 01 00:42:27
  TRACK 41 AUDIO
    TITLE "10:cjc041_3319"
    INDEX 01 00:43:07
  TRACK 42 AUDIO
    TITLE "0:"
    INDEX 01 00:44:18
  TRACK 43 AUDIO
    TITLE "11:cjc041_3320"
    INDEX 01 00:44:73
  TRACK 44 AUDIO
    TITLE "0:"
    INDEX 01 00:46:00
  TRACK 45 AUDIO
    TITLE "10:cjc041_3321"
    INDEX 01 00:46:56
  TRACK 46 AUDIO
    TITLE "0:"
    INDEX 01 00:47:64
  TRACK 47 AUDIO
    TITLE "11:cjc041_3322"
    INDEX 01 00:48:44
  TRACK 48 AUDIO
    TITLE "0:"
    INDEX 01 00:49:51
  TRACK 49 AUDIO
    TITLE "10:cjc041_3323"
    INDEX 01 00:50:33
  TRACK 50 AUDIO
    TITLE "0:"
    INDEX 01 00:51:54
  TRACK 51 AUDIO
    TITLE "11:cjc041_3324"
    INDEX 01 00:52:26
  TRACK 52 AUDIO
    TITLE "0:"
    INDEX 01 00:54:25
  TRACK 53 AUDIO
    TITLE "10:cjc041_3325"
    INDEX 01 00:55:03
  TRACK 54 AUDIO
    TITLE "0:"
    INDEX 01 00:56:27
  TRACK 55 AUDIO
    TITLE "11:cjc041_3326"
    INDEX 01 00:57:07
  TRACK 56 AUDIO
    TITLE "0:"
    INDEX 01 00:58:52
  TRACK 57 AUDIO
    TITLE "10:cjc041_3327"
    INDEX 01 00:59:30
  TRACK 58 AUDIO
    TITLE "0:"
    INDEX 01 01:00:45
  TRACK 59 AUDIO
    TITLE "11:cjc041_3328"
    INDEX 01 01:01:21
  TRACK 60 AUDIO
    TITLE "0:"
    INDEX 01 01:04:27
  TRACK 61 AUDIO
    TITLE "10:cjc041_3329"
    INDEX 01 01:05:07
  TRACK 62 AUDIO
    TITLE "0:"
    INDEX 01 01:06:10
  TRACK 63 AUDIO
    TITLE "11:cjc041_3330"
    INDEX 01 01:06:69
  TRACK 64 AUDIO
    TITLE "0:"
    INDEX 01 01:08:19
